<mxfile host="app.diagrams.net" modified="2023-09-04T17:22:45.036Z" agent="Mozilla/5.0 (Windows NT 10.0; Win64; x64) AppleWebKit/537.36 (KHTML, like Gecko) Chrome/116.0.0.0 Safari/537.36" version="21.6.8" etag="9PK1ohT4D8nbcivY1qkm" type="github">
  <diagram name="Page-1" id="CToY35RI-2fMwX9HFu1c">
    <mxGraphModel>
      <root>
        <mxCell id="0" />
        <mxCell id="1" parent="0" />
      </root>
    </mxGraphModel>
  </diagram>
</mxfile>
